<?xml version="1.0" encoding="utf-8"?>
<!-- Generator: Adobe Illustrator 16.0.0, SVG Export Plug-In . SVG Version: 6.00 Build 0)  -->
<!DOCTYPE svg PUBLIC "-//W3C//DTD SVG 1.1//EN" "http://www.w3.org/Graphics/SVG/1.1/DTD/svg11.dtd">
<svg version="1.1" xmlns="http://www.w3.org/2000/svg" xmlns:xlink="http://www.w3.org/1999/xlink" x="0px" y="0px" width="649.5px"
	 height="649.5px" viewBox="0 0 649.5 649.5" enable-background="new 0 0 649.5 649.5" xml:space="preserve">
<g id="Layer_2">
</g>
<g id="Layer_4" display="none">
	
		<image display="inline" overflow="visible" opacity="0.4" width="1200" height="675" xlink:href="moon-phases-explained.png"  transform="matrix(6.2301 0 0 6.2301 -4364.6953 -836.6406)">
	</image>
</g>
<g id="crrescent">
	<g id="XMLID_1_">
		<g>
			<path d="M348.2,6.86c165.09,12,295.3,149.74,295.3,317.89c0,171.08-134.78,310.68-303.95,318.41
				C298.64,642.44,20.84,320.76,348.2,6.86z"/>
			<path fill="#FFFFFF" d="M324.75,6c7.89,0,15.71,0.29,23.45,0.86c-327.36,313.9-49.56,635.581-8.65,636.3
				c-4.9,0.229-9.84,0.34-14.8,0.34C148.71,643.5,6,500.79,6,324.75S148.71,6,324.75,6z"/>
		</g>
		<g>
			<path fill="none" stroke="#000000" stroke-width="12" stroke-miterlimit="10" d="M348.2,6.86
				c165.09,12,295.3,149.74,295.3,317.89c0,171.08-134.78,310.68-303.95,318.41c-4.9,0.229-9.84,0.34-14.8,0.34
				C148.71,643.5,6,500.79,6,324.75S148.71,6,324.75,6C332.64,6,340.46,6.29,348.2,6.86z"/>
			<path fill="none" stroke="#000000" stroke-width="12" stroke-miterlimit="10" d="M348.21,6.85l-0.01,0.01
				c-327.36,313.9-49.56,635.581-8.65,636.3"/>
		</g>
	</g>
</g>
<g id="gibbous" display="none">
	<path display="inline" fill="none" stroke="#000000" stroke-width="12" stroke-miterlimit="10" d="M329.513,6.038
		c333.321,302.044,32.654,624.043,0.667,637.412"/>
</g>
</svg>
