<?xml version="1.0" encoding="utf-8"?>
<!-- Generator: Adobe Illustrator 16.0.0, SVG Export Plug-In . SVG Version: 6.00 Build 0)  -->
<!DOCTYPE svg PUBLIC "-//W3C//DTD SVG 1.1//EN" "http://www.w3.org/Graphics/SVG/1.1/DTD/svg11.dtd">
<svg version="1.1" xmlns="http://www.w3.org/2000/svg" xmlns:xlink="http://www.w3.org/1999/xlink" x="0px" y="0px" width="649.5px"
	 height="649.5px" viewBox="0 0 649.5 649.5" enable-background="new 0 0 649.5 649.5" xml:space="preserve">
<g id="Layer_2">
</g>
<g id="Layer_4" display="none">
	
		<image display="inline" overflow="visible" opacity="0.4" width="1200" height="675" xlink:href="moon-phases-explained.png"  transform="matrix(6.2301 0 0 6.2301 -4364.6953 -836.6406)">
	</image>
</g>
<g id="crrescent">
	<g id="XMLID_1_">
		<g>
			<path d="M301.3,6.86C136.21,18.86,6,156.6,6,324.75c0,171.08,134.78,310.68,303.95,318.41
				C350.86,642.44,628.66,320.76,301.3,6.86z"/>
			<path fill="#FFFFFF" d="M324.75,6c-7.89,0-15.71,0.29-23.45,0.86c327.36,313.9,49.56,635.581,8.65,636.3
				c4.9,0.229,9.84,0.34,14.8,0.34c176.04,0,318.75-142.71,318.75-318.75S500.79,6,324.75,6z"/>
		</g>
		<g>
			<path fill="none" stroke="#000000" stroke-width="12" stroke-miterlimit="10" d="M301.3,6.86C136.21,18.86,6,156.6,6,324.75
				c0,171.08,134.78,310.68,303.95,318.41c4.9,0.229,9.84,0.34,14.8,0.34c176.04,0,318.75-142.71,318.75-318.75S500.79,6,324.75,6
				C316.86,6,309.04,6.29,301.3,6.86z"/>
			<path fill="none" stroke="#000000" stroke-width="12" stroke-miterlimit="10" d="M301.29,6.85l0.01,0.01
				c327.36,313.9,49.56,635.581,8.65,636.3"/>
		</g>
	</g>
</g>
<g id="gibbous" display="none">
	<path display="inline" fill="none" stroke="#000000" stroke-width="12" stroke-miterlimit="10" d="M329.513,6.038
		c333.321,302.044,32.654,624.043,0.667,637.412"/>
</g>
</svg>
