<?xml version="1.0" encoding="utf-8"?>
<!-- Generator: Adobe Illustrator 16.0.0, SVG Export Plug-In . SVG Version: 6.00 Build 0)  -->
<!DOCTYPE svg PUBLIC "-//W3C//DTD SVG 1.1//EN" "http://www.w3.org/Graphics/SVG/1.1/DTD/svg11.dtd">
<svg version="1.1" id="Layer_1" xmlns="http://www.w3.org/2000/svg" xmlns:xlink="http://www.w3.org/1999/xlink" x="0px" y="0px"
	 width="649.5px" height="649.5px" viewBox="0 0 649.5 649.5" enable-background="new 0 0 649.5 649.5" xml:space="preserve">
<g id="Layer_2">
</g>
<g id="Layer_4" display="none">
	
		<image display="inline" overflow="visible" width="1200" height="675" xlink:href="moon-phases-explained.png"  transform="matrix(6.2301 0 0 6.2301 -4364.6953 -836.6409)">
	</image>
	<path display="inline" opacity="0.4" fill="none" enable-background="new    " d="z"/>
</g>
<g id="crrescent" display="none">
	<path display="inline" fill="none" stroke="#000000" stroke-width="12" stroke-miterlimit="10" d="M348.205,6.854
		c-327.372,313.894-49.566,635.585-8.657,636.302"/>
	<path display="inline" fill="none" stroke="#000000" stroke-width="12" stroke-miterlimit="10" d="M339.548,643.156
		c0,351.706-3.874,636.303-8.66,636.303"/>
</g>
<g id="gibbous">
	<g id="XMLID_1_">
		<g>
			<path d="M319.311,643.45C145.781,640.551,6,498.97,6,324.75C6,150.301,146.141,8.58,319.99,6.04
				C-13.3,308.05,287.271,630.02,319.311,643.45z"/>
			<path fill="#FFFFFF" d="M324.75,6C500.79,6,643.5,148.71,643.5,324.75c0,176.041-142.71,318.75-318.75,318.75
				c-1.81,0-3.619-0.02-5.43-0.05h-0.01c-32.04-13.431-332.61-335.399,0.68-637.41C321.571,6.01,323.16,6,324.75,6z"/>
		</g>
		<g>
			<path fill="none" stroke="#000000" stroke-width="12" stroke-miterlimit="10" d="M319.311,643.45
				C145.781,640.551,6,498.97,6,324.75C6,150.301,146.141,8.58,319.99,6.04c1.58-0.029,3.17-0.04,4.76-0.04
				C500.79,6,643.5,148.71,643.5,324.75c0,176.041-142.71,318.75-318.75,318.75c-1.81,0-3.619-0.02-5.43-0.05"/>
			<path fill="none" stroke="#000000" stroke-width="12" stroke-miterlimit="10" d="M319.321,643.45h-0.01
				c-32.04-13.431-332.61-335.399,0.68-637.41"/>
		</g>
	</g>
</g>
</svg>
